<?xml version="1.0" encoding="UTF-8" standalone="no"?>
<!-- Created with Inkscape (http://www.inkscape.org/) -->

<svg
   xmlns:dc="http://purl.org/dc/elements/1.1/"
   xmlns:cc="http://creativecommons.org/ns#"
   xmlns:rdf="http://www.w3.org/1999/02/22-rdf-syntax-ns#"
   xmlns:svg="http://www.w3.org/2000/svg"
   xmlns="http://www.w3.org/2000/svg"
   xmlns:sodipodi="http://sodipodi.sourceforge.net/DTD/sodipodi-0.dtd"
   xmlns:inkscape="http://www.inkscape.org/namespaces/inkscape"
   width="412.41501mm"
   height="243.89999mm"
   viewBox="0 0 412.41501 243.89999"
   version="1.1"
   id="svg8"
   inkscape:version="0.92.3 (2405546, 2018-03-11)"
   sodipodi:docname="neuron-otp.svg">
  <defs
     id="defs2">
    <marker
       inkscape:stockid="Arrow2Mend"
       orient="auto"
       refY="0"
       refX="0"
       id="Arrow2Mend-0-44"
       style="overflow:visible"
       inkscape:isstock="true"
       inkscape:collect="always">
      <path
         id="path6579-9-3"
         style="fill:#000000;fill-opacity:1;fill-rule:evenodd;stroke:#000000;stroke-width:0.625;stroke-linejoin:round;stroke-opacity:1"
         d="M 8.7185878,4.0337352 -2.2072895,0.01601326 8.7185884,-4.0017078 c -1.7454984,2.3720609 -1.7354408,5.6174519 -6e-7,8.035443 z"
         transform="scale(-0.6)"
         inkscape:connector-curvature="0" />
    </marker>
  </defs>
  <sodipodi:namedview
     id="base"
     pagecolor="#ffffff"
     bordercolor="#666666"
     borderopacity="1.0"
     inkscape:pageopacity="0.0"
     inkscape:pageshadow="2"
     inkscape:zoom="2.9608134"
     inkscape:cx="994.87615"
     inkscape:cy="455.1258"
     inkscape:document-units="mm"
     inkscape:current-layer="layer1"
     showgrid="false"
     width="517.58301mm"
     inkscape:window-width="1600"
     inkscape:window-height="832"
     inkscape:window-x="320"
     inkscape:window-y="1080"
     inkscape:window-maximized="1"
     inkscape:snap-center="true"
     inkscape:snap-object-midpoints="true"
     inkscape:snap-midpoints="true"
     inkscape:snap-smooth-nodes="true"
     inkscape:snap-intersection-paths="true"
     inkscape:object-paths="true"
     inkscape:snap-bbox="true"
     inkscape:snap-global="true" />
  <metadata
     id="metadata5">
    <rdf:RDF>
      <cc:Work
         rdf:about="">
        <dc:format>image/svg+xml</dc:format>
        <dc:type
           rdf:resource="http://purl.org/dc/dcmitype/StillImage" />
        <dc:title></dc:title>
      </cc:Work>
    </rdf:RDF>
  </metadata>
  <g
     inkscape:label="Layer 1"
     inkscape:groupmode="layer"
     id="layer1"
     transform="translate(0,-53.099969)">
    <text
       xml:space="preserve"
       style="font-style:normal;font-variant:normal;font-weight:normal;font-stretch:normal;font-size:10.58333302px;line-height:1.25;font-family:font;-inkscape-font-specification:font;letter-spacing:-0.32014585px;word-spacing:-0.23283333px;writing-mode:vertical-lr;fill:#000000;fill-opacity:1;stroke:none;stroke-width:0.26458332"
       x="443.07614"
       y="169.35968"
       id="text7486"><tspan
         sodipodi:role="line"
         id="tspan7484"
         x="169.35968"
         y="449.69073"
         style="stroke-width:0.26458332" /></text>
    <g
       id="g7577">
      <g
         id="g7567">
        <g
           id="g7558">
          <g
             id="g7717" />
        </g>
      </g>
    </g>
    <path
       style="fill:none;stroke:#000000;stroke-width:1.12300003;stroke-linecap:butt;stroke-linejoin:miter;stroke-miterlimit:4;stroke-dasharray:none;stroke-opacity:1"
       d="M 121.30784,175.04997 38.404828,92.146969"
       id="path4886"
       inkscape:connector-curvature="0" />
    <path
       style="fill:none;stroke:#000000;stroke-width:1.12300003;stroke-linecap:butt;stroke-linejoin:miter;stroke-miterlimit:4;stroke-dasharray:none;stroke-opacity:1"
       d="m 121.30784,175.04997 h -83.697"
       id="path4903"
       inkscape:connector-curvature="0" />
    <path
       style="fill:none;stroke:#000000;stroke-width:1.12300003;stroke-linecap:butt;stroke-linejoin:miter;stroke-miterlimit:4;stroke-dasharray:none;stroke-opacity:1"
       d="m 243.94652,175.04997 h -83.697"
       id="path4903-2"
       inkscape:connector-curvature="0" />
    <path
       style="opacity:1;fill:#6c757d;fill-opacity:1;stroke:none;stroke-width:1.00978899;stroke-linecap:square;stroke-linejoin:round;stroke-miterlimit:4;stroke-dasharray:none;stroke-dashoffset:37.79527664;stroke-opacity:1;paint-order:markers fill stroke"
       d="m 407.41516,175.04997 a 20,20 0 0 1 -19.66613,19.99722 20,20 0 0 1 -20.32272,-19.32958 20,20 0 0 1 18.98763,-20.64256 20,20 0 0 1 20.95665,18.64039"
       id="path4905-56-1" />
    <path
       style="fill:#000000;fill-rule:evenodd;stroke:#000000;stroke-width:1.12300003;stroke-linecap:butt;stroke-linejoin:miter;stroke-miterlimit:4;stroke-dasharray:none;stroke-opacity:1;marker-end:url(#Arrow2Mend-0-44)"
       d="M 283.94653,175.06075 H 365.7174"
       id="path12741-3-8"
       inkscape:connector-curvature="0"
       sodipodi:nodetypes="cc" />
    <g
       aria-label="w1"
       style="font-style:normal;font-variant:normal;font-weight:normal;font-stretch:normal;font-size:10.5832777px;line-height:1.25;font-family:font;-inkscape-font-specification:font;letter-spacing:-0.32014421px;word-spacing:-0.23283212px;fill:#000000;fill-opacity:1;stroke:none;stroke-width:0.99999487;stroke-miterlimit:4;stroke-dasharray:none"
       id="text10037-2-1-3-7-9">
      <path
         d="m 74.037183,121.22323 h 0.950846 l 1.188558,4.51652 1.183391,-4.51652 h 1.121378 l 1.188558,4.51652 1.18339,-4.51652 h 0.950847 l -1.51412,5.78776 h -1.121378 l -1.245402,-4.7439 -1.25057,4.7439 h -1.121378 z"
         style="font-size:10.58333302px;stroke-width:0.99999487;stroke-miterlimit:4;stroke-dasharray:none"
         id="path1080" />
      <path
         d="m 82.786769,128.55663 h 1.108459 v -3.82587 l -1.205869,0.24185 v -0.61805 l 1.199151,-0.24185 h 0.678512 v 4.44392 h 1.108459 v 0.57102 h -2.888712 z"
         style="font-size:64.99999762%;baseline-shift:sub"
         id="path1082" />
    </g>
    <g
       aria-label="w2"
       style="font-style:normal;font-variant:normal;font-weight:normal;font-stretch:normal;font-size:10.5832777px;line-height:1.25;font-family:font;-inkscape-font-specification:font;letter-spacing:-0.32014421px;word-spacing:-0.23283212px;fill:#000000;fill-opacity:1;stroke:none;stroke-width:0.99999487;stroke-miterlimit:4;stroke-dasharray:none"
       id="text10037-2-1-3-7-9-2">
      <path
         d="M 74.064054,164.74784 H 75.0149 l 1.188558,4.51652 1.18339,-4.51652 h 1.121379 l 1.188558,4.51652 1.18339,-4.51652 h 0.950846 l -1.514119,5.78776 h -1.121379 l -1.245402,-4.7439 -1.250569,4.7439 h -1.121379 z"
         style="font-size:10.58333302px;stroke-width:0.99999487;stroke-miterlimit:4;stroke-dasharray:none"
         id="path1075" />
      <path
         d="m 83.280536,172.08124 h 2.368072 v 0.57103 h -3.184301 v -0.57103 q 0.386281,-0.39972 1.051357,-1.07151 0.668434,-0.67515 0.839742,-0.86997 0.32582,-0.36613 0.45346,-0.61805 0.131,-0.25528 0.131,-0.50049 0,-0.39972 -0.282153,-0.65164 -0.278795,-0.25192 -0.728896,-0.25192 -0.319102,0 -0.675153,0.11084 -0.352691,0.11085 -0.755768,0.3359 v -0.68523 q 0.409795,-0.16459 0.765845,-0.24856 0.356051,-0.084 0.65164,-0.084 0.77928,0 1.242818,0.38964 0.463538,0.38964 0.463538,1.04128 0,0.30903 -0.117564,0.58782 -0.114205,0.27544 -0.419871,0.65164 -0.08397,0.0974 -0.534076,0.56431 -0.450102,0.46354 -1.26969,1.29992 z"
         style="font-size:64.99999762%;baseline-shift:sub"
         id="path1077" />
    </g>
    <g
       aria-label="w3"
       style="font-style:normal;font-variant:normal;font-weight:normal;font-stretch:normal;font-size:10.5832777px;line-height:1.25;font-family:font;-inkscape-font-specification:font;letter-spacing:-0.32014421px;word-spacing:-0.23283212px;fill:#000000;fill-opacity:1;stroke:none;stroke-width:0.99999487;stroke-miterlimit:4;stroke-dasharray:none"
       id="text10037-2-1-3-7-9-9">
      <path
         d="m 75.582685,223.08895 h 0.950846 l 1.188558,4.51652 1.18339,-4.51652 h 1.121379 l 1.188558,4.51652 1.18339,-4.51652 h 0.950846 l -1.514119,5.78776 h -1.121379 l -1.245402,-4.7439 -1.250569,4.7439 h -1.121379 z"
         style="font-size:10.58333302px;stroke-width:0.99999487;stroke-miterlimit:4;stroke-dasharray:none"
         id="path1070" />
      <path
         d="m 86.270395,228.28941 q 0.48705,0.10412 0.759127,0.4333 0.275435,0.32918 0.275435,0.81287 0,0.74234 -0.510563,1.14877 -0.510563,0.40644 -1.451074,0.40644 -0.315743,0 -0.65164,-0.0638 -0.332538,-0.0605 -0.688588,-0.18475 v -0.655 q 0.282153,0.16459 0.61805,0.24857 0.335896,0.084 0.702024,0.084 0.638204,0 0.970742,-0.25192 0.335896,-0.25192 0.335896,-0.73226 0,-0.44338 -0.312384,-0.69194 -0.309025,-0.25193 -0.863254,-0.25193 h -0.584461 v -0.55759 h 0.611332 q 0.500487,0 0.765845,-0.19817 0.265359,-0.20154 0.265359,-0.57775 0,-0.38628 -0.275436,-0.59118 -0.272076,-0.20825 -0.782639,-0.20825 -0.278795,0 -0.597897,0.0605 -0.319102,0.0605 -0.702024,0.1881 v -0.60461 q 0.386281,-0.10749 0.722178,-0.16123 0.339256,-0.0537 0.638204,-0.0537 0.772563,0 1.222664,0.3527 0.450102,0.34933 0.450102,0.94722 0,0.41652 -0.238487,0.70539 -0.238486,0.28551 -0.678511,0.39636 z"
         style="font-size:64.99999762%;baseline-shift:sub"
         id="path1072" />
    </g>
    <path
       style="opacity:1;fill:#6c757d;fill-opacity:1;stroke:none;stroke-width:1.30431771;stroke-linecap:square;stroke-linejoin:round;stroke-miterlimit:4;stroke-dasharray:none;stroke-dashoffset:37.79527664;stroke-opacity:1;paint-order:markers fill stroke"
       d="m 243.94653,155.04997 h 40 v 40 h -40 z"
       id="rect3638" />
    <g
       id="g7843"
       transform="translate(-55.635168,3.580347)">
      <g
         aria-label="Sum"
         style="font-style:normal;font-variant:normal;font-weight:normal;font-stretch:normal;font-size:10.5832777px;line-height:1.25;font-family:font;-inkscape-font-specification:font;letter-spacing:-0.32014421px;word-spacing:-0.23283212px;fill:#000000;fill-opacity:1;stroke:none;stroke-width:0.99999487;stroke-miterlimit:4;stroke-dasharray:none"
         id="text10037-2-1-3-7-9-9-2-3">
        <path
           d="m 190.09667,142.01494 v 1.01803 q -0.59427,-0.28422 -1.12137,-0.42375 -0.5271,-0.13952 -1.01803,-0.13952 -0.85266,0 -1.31775,0.33073 -0.45992,0.33072 -0.45992,0.94051 0,0.51159 0.30489,0.77514 0.31006,0.25839 1.16789,0.41858 l 0.63045,0.12919 q 1.16789,0.22221 1.72083,0.78548 0.5581,0.55811 0.5581,1.49862 0,1.12138 -0.75447,1.70016 -0.74931,0.57877 -2.20142,0.57877 -0.54777,0 -1.16789,-0.12402 -0.61495,-0.12402 -1.2764,-0.3669 v -1.07487 q 0.63562,0.35656 1.2454,0.53743 0.60978,0.18087 1.19889,0.18087 0.894,0 1.37976,-0.3514 0.48576,-0.3514 0.48576,-1.00252 0,-0.56844 -0.3514,-0.88884 -0.34623,-0.32039 -1.14205,-0.48059 l -0.63562,-0.12402 q -1.16789,-0.23255 -1.68982,-0.72864 -0.52193,-0.49609 -0.52193,-1.37976 0,-1.02319 0.7183,-1.61231 0.72347,-0.58911 1.98954,-0.58911 0.54261,0 1.10588,0.0982 0.56327,0.0982 1.15238,0.29455 z"
           style="font-size:10.58333302px;stroke-width:0.99999487;stroke-miterlimit:4;stroke-dasharray:none"
           id="path1028" />
        <path
           d="m 191.7299,147.19292 v -3.50366 h 0.95085 v 3.46749 q 0,0.82165 0.32039,1.23507 0.32039,0.40824 0.96118,0.40824 0.76998,0 1.2144,-0.49093 0.44958,-0.49092 0.44958,-1.33842 v -3.28145 h 0.95085 v 5.78776 h -0.95085 v -0.88883 q -0.34623,0.5271 -0.80615,0.78548 -0.45475,0.25321 -1.05937,0.25321 -0.99735,0 -1.51412,-0.62012 -0.51676,-0.62011 -0.51676,-1.81384 z m 2.39262,-3.64319 z"
           style="font-size:10.58333302px;stroke-width:0.99999487;stroke-miterlimit:4;stroke-dasharray:none"
           id="path1030" />
        <path
           d="m 202.73206,144.8003 q 0.35657,-0.64078 0.85266,-0.94568 0.4961,-0.30489 1.16789,-0.30489 0.90434,0 1.39526,0.63562 0.49093,0.63046 0.49093,1.79834 v 3.49333 h -0.95601 v -3.46232 q 0,-0.83199 -0.29456,-1.23507 -0.29456,-0.40307 -0.89917,-0.40307 -0.73897,0 -1.16789,0.49092 -0.42891,0.49093 -0.42891,1.33842 v 3.27112 h -0.95602 v -3.46232 q 0,-0.83716 -0.29455,-1.23507 -0.29456,-0.40307 -0.90951,-0.40307 -0.72863,0 -1.15755,0.49609 -0.42891,0.49093 -0.42891,1.33325 v 3.27112 h -0.95602 v -5.78776 h 0.95602 v 0.89917 q 0.32556,-0.53227 0.78031,-0.78548 0.45475,-0.25322 1.08004,-0.25322 0.63045,0 1.0697,0.3204 0.44442,0.32039 0.65629,0.93017 z"
           style="font-size:10.58333302px;stroke-width:0.99999487;stroke-miterlimit:4;stroke-dasharray:none"
           id="path1032" />
      </g>
      <g
         aria-label="Activation"
         style="font-style:normal;font-variant:normal;font-weight:normal;font-stretch:normal;font-size:10.5832777px;line-height:1.25;font-family:font;-inkscape-font-specification:font;letter-spacing:-0.32014421px;word-spacing:-0.23283212px;fill:#000000;fill-opacity:1;stroke:none;stroke-width:0.99999487;stroke-miterlimit:4;stroke-dasharray:none"
         id="text10037-2-1-3-7-9-9-2-3-9">
        <path
           d="m 298.55345,142.88311 -1.41594,3.83956 h 2.83704 z m -0.58911,-1.02836 h 1.18339 l 2.94038,7.71529 h -1.0852 l -0.7028,-1.97921 h -3.47782 l -0.7028,1.97921 h -1.10071 z"
           style="font-size:10.58333302px;stroke-width:0.99999487;stroke-miterlimit:4;stroke-dasharray:none"
           id="path1035" />
        <path
           d="m 306.82709,144.00449 v 0.88883 q -0.40307,-0.22221 -0.81132,-0.33073 -0.40307,-0.11369 -0.81649,-0.11369 -0.925,0 -1.4366,0.58911 -0.5116,0.58395 -0.5116,1.64332 0,1.05936 0.5116,1.64847 0.5116,0.58395 1.4366,0.58395 0.41342,0 0.81649,-0.10852 0.40825,-0.11369 0.81132,-0.3359 v 0.8785 q -0.39791,0.18603 -0.82682,0.27905 -0.42375,0.093 -0.90434,0.093 -1.30741,0 -2.07739,-0.82166 -0.76998,-0.82165 -0.76998,-2.21691 0,-1.41594 0.77515,-2.22726 0.78031,-0.81132 2.13423,-0.81132 0.43925,0 0.85783,0.093 0.41858,0.0879 0.81132,0.26872 z"
           style="font-size:10.58333302px;stroke-width:0.99999487;stroke-miterlimit:4;stroke-dasharray:none"
           id="path1037" />
        <path
           d="m 309.11144,142.13897 v 1.64331 h 1.95854 v 0.73897 h -1.95854 v 3.14193 q 0,0.70796 0.1912,0.9095 0.19637,0.20154 0.79065,0.20154 h 0.97669 v 0.79582 h -0.97669 q -1.10071,0 -1.51928,-0.40825 -0.41858,-0.41341 -0.41858,-1.49861 v -3.14193 h -0.69764 v -0.73897 h 0.69764 v -1.64331 z"
           style="font-size:10.58333302px;stroke-width:0.99999487;stroke-miterlimit:4;stroke-dasharray:none"
           id="path1039" />
        <path
           d="m 312.00557,143.78228 h 0.95085 v 5.78776 h -0.95085 z m 0,-2.25309 h 0.95085 v 1.20406 h -0.95085 z"
           style="font-size:10.58333302px;stroke-width:0.99999487;stroke-miterlimit:4;stroke-dasharray:none"
           id="path1041" />
        <path
           d="m 313.93852,143.78228 h 1.00769 l 1.80867,4.85758 1.80868,-4.85758 h 1.00769 l -2.17041,5.78776 h -1.29191 z"
           style="font-size:10.58333302px;stroke-width:0.99999487;stroke-miterlimit:4;stroke-dasharray:none"
           id="path1043" />
        <path
           d="m 323.19402,146.66065 q -1.15239,0 -1.5968,0.26355 -0.44442,0.26355 -0.44442,0.89917 0,0.50643 0.33073,0.80616 0.33589,0.29455 0.9095,0.29455 0.79065,0 1.26608,-0.5581 0.48059,-0.56328 0.48059,-1.49345 v -0.21188 z m 1.89652,-0.39274 v 3.30213 h -0.95084 v -0.8785 q -0.32557,0.5271 -0.81132,0.78031 -0.48576,0.24805 -1.18856,0.24805 -0.88884,0 -1.41594,-0.49609 -0.52193,-0.50127 -0.52193,-1.33842 0,-0.97669 0.65112,-1.47278 0.6563,-0.4961 1.95337,-0.4961 h 1.33326 v -0.093 q 0,-0.65629 -0.43409,-1.01286 -0.42891,-0.36174 -1.20922,-0.36174 -0.4961,0 -0.96635,0.11886 -0.47026,0.11886 -0.90434,0.35657 v -0.8785 q 0.52193,-0.20154 1.01286,-0.29973 0.49092,-0.10335 0.95601,-0.10335 1.25574,0 1.87586,0.65112 0.62011,0.65113 0.62011,1.97404 z"
           style="font-size:10.58333302px;stroke-width:0.99999487;stroke-miterlimit:4;stroke-dasharray:none"
           id="path1045" />
        <path
           d="m 327.67461,142.13897 v 1.64331 h 1.95854 v 0.73897 h -1.95854 v 3.14193 q 0,0.70796 0.19121,0.9095 0.19637,0.20154 0.79065,0.20154 h 0.97668 v 0.79582 h -0.97668 q -1.10071,0 -1.51929,-0.40825 -0.41858,-0.41341 -0.41858,-1.49861 v -3.14193 h -0.69763 v -0.73897 h 0.69763 v -1.64331 z"
           style="font-size:10.58333302px;stroke-width:0.99999487;stroke-miterlimit:4;stroke-dasharray:none"
           id="path1047" />
        <path
           d="m 330.56874,143.78228 h 0.95085 v 5.78776 h -0.95085 z m 0,-2.25309 h 0.95085 v 1.20406 h -0.95085 z"
           style="font-size:10.58333302px;stroke-width:0.99999487;stroke-miterlimit:4;stroke-dasharray:none"
           id="path1049" />
        <path
           d="m 335.42658,144.4489 q -0.76481,0 -1.20923,0.59945 -0.44442,0.59428 -0.44442,1.63298 0,1.03869 0.43925,1.63814 0.44442,0.59428 1.2144,0.59428 0.75964,0 1.20406,-0.59945 0.44442,-0.59945 0.44442,-1.63297 0,-1.02837 -0.44442,-1.62781 -0.44442,-0.60462 -1.20406,-0.60462 z m 0,-0.80615 q 1.24023,0 1.9482,0.80615 0.70797,0.80616 0.70797,2.23243 0,1.4211 -0.70797,2.23242 -0.70797,0.80615 -1.9482,0.80615 -1.2454,0 -1.95337,-0.80615 -0.7028,-0.81132 -0.7028,-2.23242 0,-1.42627 0.7028,-2.23243 0.70797,-0.80615 1.95337,-0.80615 z"
           style="font-size:10.58333302px;stroke-width:0.99999487;stroke-miterlimit:4;stroke-dasharray:none"
           id="path1051" />
        <path
           d="m 344.14464,146.07671 v 3.49333 h -0.95085 v -3.46232 q 0,-0.82166 -0.32039,-1.2299 -0.32039,-0.40825 -0.96118,-0.40825 -0.76998,0 -1.2144,0.49093 -0.44442,0.49093 -0.44442,1.33842 v 3.27112 h -0.95601 v -5.78776 h 0.95601 v 0.89917 q 0.34107,-0.52193 0.80099,-0.78032 0.46509,-0.25838 1.0697,-0.25838 0.99736,0 1.50895,0.62012 0.5116,0.61495 0.5116,1.81384 z"
           style="font-size:10.58333302px;stroke-width:0.99999487;stroke-miterlimit:4;stroke-dasharray:none"
           id="path1053" />
      </g>
      <g
         aria-label="Output"
         style="font-style:normal;font-variant:normal;font-weight:normal;font-stretch:normal;font-size:10.5832777px;line-height:1.25;font-family:font;-inkscape-font-specification:font;letter-spacing:-0.32014421px;word-spacing:-0.23283212px;fill:#000000;fill-opacity:1;stroke:none;stroke-width:0.99999487;stroke-miterlimit:4;stroke-dasharray:none"
         id="text10037-2-1-3-7-9-9-2-3-7">
        <path
           d="m 429.45624,141.44392 q -1.13688,0 -1.80868,0.8475 -0.66662,0.84749 -0.66662,2.30993 0,1.45728 0.66662,2.30477 0.6718,0.8475 1.80868,0.8475 1.13688,0 1.79834,-0.8475 0.66662,-0.84749 0.66662,-2.30477 0,-1.46244 -0.66662,-2.30993 -0.66146,-0.8475 -1.79834,-0.8475 z m 0,-0.84749 q 1.62264,0 2.59415,1.09037 0.97152,1.08521 0.97152,2.91455 0,1.82418 -0.97152,2.91455 -0.97151,1.08521 -2.59415,1.08521 -1.62781,0 -2.60449,-1.08521 -0.97152,-1.0852 -0.97152,-2.91455 0,-1.82934 0.97152,-2.91455 0.97668,-1.09037 2.60449,-1.09037 z"
           style="font-size:10.58333302px;stroke-width:0.99999487;stroke-miterlimit:4;stroke-dasharray:none"
           id="path1056" />
        <path
           d="m 434.19522,146.16715 v -3.50366 h 0.95084 v 3.46749 q 0,0.82165 0.3204,1.23506 0.32039,0.40825 0.96118,0.40825 0.76998,0 1.21439,-0.49093 0.44959,-0.49093 0.44959,-1.33842 v -3.28145 h 0.95084 v 5.78776 h -0.95084 v -0.88884 q -0.34623,0.5271 -0.80615,0.78549 -0.45476,0.25321 -1.05937,0.25321 -0.99736,0 -1.51412,-0.62012 -0.51676,-0.62011 -0.51676,-1.81384 z m 2.39261,-3.64319 z"
           style="font-size:10.58333302px;stroke-width:0.99999487;stroke-miterlimit:4;stroke-dasharray:none"
           id="path1058" />
        <path
           d="m 441.6317,141.02018 v 1.64331 h 1.95854 v 0.73897 h -1.95854 v 3.14193 q 0,0.70796 0.19121,0.9095 0.19637,0.20154 0.79065,0.20154 h 0.97668 v 0.79582 h -0.97668 q -1.10071,0 -1.51929,-0.40825 -0.41858,-0.41341 -0.41858,-1.49861 v -3.14193 h -0.69763 v -0.73897 h 0.69763 v -1.64331 z"
           style="font-size:10.58333302px;stroke-width:0.99999487;stroke-miterlimit:4;stroke-dasharray:none"
           id="path1060" />
        <path
           d="m 445.44567,147.58308 v 3.06958 h -0.95601 v -7.98917 h 0.95601 v 0.8785 q 0.29973,-0.51677 0.75448,-0.76481 0.45992,-0.25322 1.09554,-0.25322 1.0542,0 1.71049,0.83716 0.66146,0.83716 0.66146,2.20142 0,1.36425 -0.66146,2.20141 -0.65629,0.83716 -1.71049,0.83716 -0.63562,0 -1.09554,-0.24805 -0.45475,-0.25321 -0.75448,-0.76998 z m 3.23495,-2.02054 q 0,-1.04904 -0.43408,-1.64331 -0.42892,-0.59945 -1.18339,-0.59945 -0.75448,0 -1.18856,0.59945 -0.42892,0.59427 -0.42892,1.64331 0,1.04903 0.42892,1.64847 0.43408,0.59428 1.18856,0.59428 0.75447,0 1.18339,-0.59428 0.43408,-0.59944 0.43408,-1.64847 z"
           style="font-size:10.58333302px;stroke-width:0.99999487;stroke-miterlimit:4;stroke-dasharray:none"
           id="path1062" />
        <path
           d="m 450.82544,146.16715 v -3.50366 h 0.95085 v 3.46749 q 0,0.82165 0.32039,1.23506 0.32039,0.40825 0.96118,0.40825 0.76998,0 1.2144,-0.49093 0.44958,-0.49093 0.44958,-1.33842 v -3.28145 h 0.95085 v 5.78776 h -0.95085 v -0.88884 q -0.34623,0.5271 -0.80615,0.78549 -0.45475,0.25321 -1.05937,0.25321 -0.99735,0 -1.51412,-0.62012 -0.51676,-0.62011 -0.51676,-1.81384 z m 2.39262,-3.64319 z"
           style="font-size:10.58333302px;stroke-width:0.99999487;stroke-miterlimit:4;stroke-dasharray:none"
           id="path1064" />
        <path
           d="m 458.26193,141.02018 v 1.64331 h 1.95854 v 0.73897 h -1.95854 v 3.14193 q 0,0.70796 0.1912,0.9095 0.19637,0.20154 0.79065,0.20154 h 0.97669 v 0.79582 h -0.97669 q -1.10071,0 -1.51929,-0.40825 -0.41858,-0.41341 -0.41858,-1.49861 v -3.14193 h -0.69763 v -0.73897 h 0.69763 v -1.64331 z"
           style="font-size:10.58333302px;stroke-width:0.99999487;stroke-miterlimit:4;stroke-dasharray:none"
           id="path1066" />
      </g>
    </g>
    <path
       style="fill:none;stroke:#000000;stroke-width:1.12300003;stroke-linecap:butt;stroke-linejoin:miter;stroke-miterlimit:4;stroke-dasharray:none;stroke-opacity:1"
       d="M 121.30784,175.04997 38.404832,257.95298"
       id="path4886-7"
       inkscape:connector-curvature="0" />
    <g
       id="g1133"
       transform="translate(-6.3499956,-12.712481)">
      <path
         style="opacity:1;fill:#3498db;fill-opacity:1;stroke:none;stroke-width:1.00978899;stroke-linecap:square;stroke-linejoin:round;stroke-miterlimit:4;stroke-dasharray:none;stroke-dashoffset:37.79527664;stroke-opacity:1;paint-order:markers fill stroke"
         d="m 51.349833,284.71249 a 20,20 0 0 1 -19.666134,19.99722 20,20 0 0 1 -20.32272,-19.32958 20,20 0 0 1 18.987628,-20.64256 20,20 0 0 1 20.956651,18.64039"
         id="path4905-5" />
      <g
         aria-label="i3"
         style="font-style:normal;font-variant:normal;font-weight:normal;font-stretch:normal;font-size:10.5832777px;line-height:1.25;font-family:font;-inkscape-font-specification:font;letter-spacing:-0.32014421px;word-spacing:-0.23283212px;fill:#000000;fill-opacity:1;stroke:none;stroke-width:0.99999487;stroke-miterlimit:4;stroke-dasharray:none"
         id="text10037-2-1-3-7-9-9-2-7">
        <path
           d="m 28.628039,281.83812 h 0.950846 v 5.78777 h -0.950846 z m 0,-2.25309 h 0.950846 v 1.20406 h -0.950846 z"
           style="font-size:10.58333302px;stroke-width:0.99999487;stroke-miterlimit:4;stroke-dasharray:none"
           id="path1023" />
        <path
           d="m 33.037063,287.03858 q 0.487051,0.10413 0.759127,0.43331 0.275435,0.32918 0.275435,0.81287 0,0.74233 -0.510563,1.14877 -0.510563,0.40643 -1.451074,0.40643 -0.315743,0 -0.65164,-0.0638 -0.332538,-0.0605 -0.688588,-0.18474 v -0.655 q 0.282153,0.16459 0.61805,0.24856 0.335897,0.084 0.702024,0.084 0.638204,0 0.970742,-0.25193 0.335897,-0.25192 0.335897,-0.73225 0,-0.44338 -0.312384,-0.69195 -0.309025,-0.25192 -0.863255,-0.25192 h -0.58446 v -0.55759 h 0.611332 q 0.500486,0 0.765844,-0.19818 0.265359,-0.20154 0.265359,-0.57774 0,-0.38628 -0.275435,-0.59118 -0.272077,-0.20826 -0.78264,-0.20826 -0.278794,0 -0.597896,0.0605 -0.319102,0.0605 -0.702025,0.1881 v -0.60462 q 0.386282,-0.10748 0.722179,-0.16123 0.339255,-0.0537 0.638203,-0.0537 0.772563,0 1.222665,0.35269 0.450101,0.34933 0.450101,0.94723 0,0.41651 -0.238486,0.70538 -0.238487,0.28552 -0.678512,0.39636 z"
           style="font-size:6.87916613px;baseline-shift:sub;stroke-width:0.99999487"
           id="path1025" />
      </g>
    </g>
    <path
       style="fill:none;stroke:#000000;stroke-width:1.12300003;stroke-linecap:butt;stroke-linejoin:miter;stroke-miterlimit:4;stroke-dasharray:none;stroke-opacity:1"
       d="M 121.30784,175.04997 38.404832,92.146959"
       id="path4886-7-6"
       inkscape:connector-curvature="0" />
    <path
       style="opacity:1;fill:#6c757d;fill-opacity:1;stroke:none;stroke-width:1.00978899;stroke-linecap:square;stroke-linejoin:round;stroke-miterlimit:4;stroke-dasharray:none;stroke-dashoffset:37.79527664;stroke-opacity:1;paint-order:markers fill stroke"
       d="m 160.24953,176.38451 a 20,20 0 0 1 -19.66614,19.99721 20,20 0 0 1 -20.32272,-19.32957 20,20 0 0 1 18.98763,-20.64257 20,20 0 0 1 20.95665,18.64039"
       id="path4905-56" />
    <g
       id="g1121"
       transform="translate(-6.3499956,-12.712481)">
      <path
         transform="scale(1,-1)"
         style="opacity:1;fill:#3498db;fill-opacity:1;stroke:none;stroke-width:1.00978899;stroke-linecap:square;stroke-linejoin:round;stroke-miterlimit:4;stroke-dasharray:none;stroke-dashoffset:37.79527664;stroke-opacity:1;paint-order:markers fill stroke"
         d="M 51.35,-90.812401 A 20,20 0 0 1 31.683866,-70.815188 20,20 0 0 1 11.361147,-90.144762 20,20 0 0 1 30.348774,-110.78732 20,20 0 0 1 51.305426,-92.146935"
         id="path4905-5-5" />
      <g
         aria-label="i1"
         style="font-style:normal;font-variant:normal;font-weight:normal;font-stretch:normal;font-size:10.5832777px;line-height:1.25;font-family:font;-inkscape-font-specification:font;letter-spacing:-0.32014421px;word-spacing:-0.23283212px;fill:#000000;fill-opacity:1;stroke:none;stroke-width:0.99999487;stroke-miterlimit:4;stroke-dasharray:none"
         id="text10037-2-1-3-7-9-9-2">
        <path
           d="m 28.670195,87.98673 h 0.950847 v 5.78776 h -0.950847 z m 0,-2.253092 h 0.950847 v 1.204061 h -0.950847 z"
           style="font-size:10.58333302px;stroke-width:0.99999487;stroke-miterlimit:4;stroke-dasharray:none"
           id="path1016" />
        <path
           d="m 31.141095,95.320132 h 1.108459 v -3.825864 l -1.205869,0.241846 v -0.61805 l 1.199151,-0.241846 h 0.678512 v 4.443914 h 1.108459 v 0.571025 h -2.888712 z"
           style="font-size:64.99999762%;baseline-shift:sub"
           id="path1018" />
      </g>
    </g>
    <path
       style="opacity:1;fill:#3498db;fill-opacity:1;stroke:none;stroke-width:1.00978899;stroke-linecap:square;stroke-linejoin:round;stroke-miterlimit:4;stroke-dasharray:none;stroke-dashoffset:37.79527664;stroke-opacity:1;paint-order:markers fill stroke"
       d="M 44.999838,176.38451 A 20,20 0 0 1 25.333704,196.38172 20,20 0 0 1 5.0109845,177.05215 20,20 0 0 1 23.998612,156.40958 20,20 0 0 1 44.955264,175.04997"
       id="path4905-3" />
    <g
       aria-label="i2"
       style="font-style:normal;font-variant:normal;font-weight:normal;font-stretch:normal;font-size:10.5832777px;line-height:1.25;font-family:font;-inkscape-font-specification:font;letter-spacing:-0.32014421px;word-spacing:-0.23283212px;fill:#000000;fill-opacity:1;stroke:none;stroke-width:0.99999487;stroke-miterlimit:4;stroke-dasharray:none"
       id="text10037-2-1-3-7-9-9-2-1">
      <path
         d="m 22.346903,173.55884 h 0.950847 v 5.78776 h -0.950847 z m 0,-2.25309 h 0.950847 v 1.20406 h -0.950847 z"
         style="font-size:10.58333302px;stroke-width:0.99999487;stroke-miterlimit:4;stroke-dasharray:none"
         id="path1009" />
      <path
         d="m 25.2847,180.89225 h 2.368072 v 0.57102 h -3.184301 v -0.57102 q 0.386281,-0.39972 1.051356,-1.07152 0.668435,-0.67515 0.839742,-0.86997 0.32582,-0.36613 0.453461,-0.61805 0.131,-0.25528 0.131,-0.50048 0,-0.39972 -0.282153,-0.65164 -0.278795,-0.25193 -0.728896,-0.25193 -0.319102,0 -0.675153,0.11085 -0.352692,0.11085 -0.755768,0.3359 v -0.68523 q 0.409794,-0.16459 0.765845,-0.24857 0.35605,-0.084 0.65164,-0.084 0.77928,0 1.242818,0.38964 0.463537,0.38964 0.463537,1.04128 0,0.30902 -0.117564,0.58782 -0.114204,0.27543 -0.419871,0.65164 -0.08397,0.0974 -0.534075,0.5643 -0.450102,0.46354 -1.26969,1.29993 z"
         style="font-size:64.99999762%;baseline-shift:sub"
         id="path1011" />
    </g>
    <path
       style="fill:none;stroke:#ffffff;stroke-width:1;stroke-linecap:butt;stroke-linejoin:miter;stroke-miterlimit:4;stroke-dasharray:none;stroke-opacity:1"
       d="m 283.99909,157.51007 c -12.66156,0.81821 -19.10773,6.38249 -20.03273,17.5429 -0.925,11.16041 -7.37117,16.72469 -20.03273,17.5429"
       id="path870"
       inkscape:connector-curvature="0"
       sodipodi:nodetypes="ccc" />
    <g
       aria-label="Σ"
       transform="matrix(0,-1.9706825,1.9706825,0,-136.13776,-171.21336)"
       style="font-style:normal;font-variant:normal;font-weight:normal;font-stretch:normal;font-size:10.58333302px;line-height:1.25;font-family:font;-inkscape-font-specification:font;letter-spacing:-0.32014585px;word-spacing:-0.23283333px;writing-mode:vertical-lr;fill:#ffffff;fill-opacity:1;stroke:none;stroke-width:0.26458332"
       id="text924">
      <path
         d="m -180.35671,138.53387 v 5.02984 h -1.17133 v -6.62837 h 1.17133 l 4.29948,3.3004 3.64491,-3.3004 h 1.17134 v 6.50434 h -1.17134 v -4.90581 l -3.61735,3.3004 z"
         style="font-size:14.11111069px;fill:#ffffff;stroke-width:0.26458332"
         id="path1006"
         inkscape:connector-curvature="0" />
    </g>
  </g>
</svg>
