<?xml version="1.0" encoding="UTF-8" standalone="no"?>
<!-- Created with Inkscape (http://www.inkscape.org/) -->

<svg
   xmlns:dc="http://purl.org/dc/elements/1.1/"
   xmlns:cc="http://creativecommons.org/ns#"
   xmlns:rdf="http://www.w3.org/1999/02/22-rdf-syntax-ns#"
   xmlns:svg="http://www.w3.org/2000/svg"
   xmlns="http://www.w3.org/2000/svg"
   xmlns:sodipodi="http://sodipodi.sourceforge.net/DTD/sodipodi-0.dtd"
   xmlns:inkscape="http://www.inkscape.org/namespaces/inkscape"
   width="278.38901mm"
   height="109.058mm"
   viewBox="0 0 278.38901 109.058"
   version="1.1"
   id="svg8"
   sodipodi:docname="buckets-otp.svg"
   inkscape:version="0.92.3 (2405546, 2018-03-11)">
  <defs
     id="defs2" />
  <sodipodi:namedview
     id="base"
     pagecolor="#ffffff"
     bordercolor="#666666"
     borderopacity="1.0"
     inkscape:pageopacity="0.0"
     inkscape:pageshadow="2"
     inkscape:zoom="0.70170367"
     inkscape:cx="727.11076"
     inkscape:cy="140.1224"
     inkscape:document-units="mm"
     inkscape:current-layer="g5796"
     showgrid="false"
     width="267.138mm"
     inkscape:window-width="1600"
     inkscape:window-height="832"
     inkscape:window-x="320"
     inkscape:window-y="1080"
     inkscape:window-maximized="1" />
  <metadata
     id="metadata5">
    <rdf:RDF>
      <cc:Work
         rdf:about="">
        <dc:format>image/svg+xml</dc:format>
        <dc:type
           rdf:resource="http://purl.org/dc/dcmitype/StillImage" />
        <dc:title></dc:title>
      </cc:Work>
    </rdf:RDF>
  </metadata>
  <g
     inkscape:label="Layer 1"
     inkscape:groupmode="layer"
     id="layer1"
     transform="translate(0,-187.942)">
    <g
       id="g5847"
       transform="translate(5.0000009,-5.9999215)">
      <g
         id="g5821">
        <path
           style="fill:none;stroke:#6c757b;stroke-width:1.01466775;stroke-linecap:round;stroke-linejoin:bevel;stroke-miterlimit:4;stroke-dasharray:none;stroke-opacity:0.99215686"
           d="m 0.50721488,199.4564 v 80.97811 H 81.492447 V 199.4564"
           id="path815"
           inkscape:connector-curvature="0"
           sodipodi:nodetypes="cccc" />
        <g
           aria-label="&quot;Hello, world!&quot;"
           style="font-style:normal;font-variant:normal;font-weight:normal;font-stretch:normal;font-size:10.58328915px;line-height:1.25;font-family:font;-inkscape-font-specification:font;letter-spacing:-0.32014453px;word-spacing:-0.23283237px;writing-mode:lr-tb;fill:#000000;fill-opacity:1;stroke:none;stroke-width:0.26458222"
           id="text819">
          <path
             d="m 6.915191,235.63205 v 2.86803 H 6.0366954 v -2.86803 z m 1.953361,0 v 2.86803 H 7.9900563 v -2.86803 z"
             style="font-size:10.58328915px;stroke-width:0.26458222"
             id="path1011" />
          <path
             d="m 10.615456,235.63205 h 1.04386 v 3.16258 h 3.793034 v -3.16258 h 1.04386 v 7.71526 h -1.04386 v -3.67418 h -3.793034 v 3.67418 h -1.04386 z"
             style="font-size:10.58328915px;stroke-width:0.26458222"
             id="path1013" />
          <path
             d="m 23.162689,240.21573 v 0.46508 h -4.371807 q 0.06201,0.98185 0.589108,1.49861 0.532265,0.5116 1.47794,0.5116 0.547768,0 1.059363,-0.13436 0.516762,-0.13436 1.023189,-0.40308 v 0.89917 q -0.511595,0.21704 -1.049027,0.33073 -0.537433,0.11369 -1.090369,0.11369 -1.384922,0 -2.196239,-0.80615 -0.806149,-0.80615 -0.806149,-2.18074 0,-1.42109 0.764808,-2.25308 0.769976,-0.83716 2.072217,-0.83716 1.167882,0 1.84484,0.75448 0.682126,0.7493 0.682126,2.04121 z m -0.950842,-0.27905 q -0.01033,-0.78032 -0.439248,-1.2454 -0.423745,-0.46509 -1.126541,-0.46509 -0.795814,0 -1.276403,0.44959 -0.475421,0.44958 -0.547768,1.26606 z"
             style="font-size:10.58328915px;stroke-width:0.26458222"
             id="path1015" />
          <path
             d="m 24.403167,235.30649 h 0.950842 v 8.04082 h -0.950842 z"
             style="font-size:10.58328915px;stroke-width:0.26458222"
             id="path1017" />
          <path
             d="m 27.018232,235.30649 h 0.950842 v 8.04082 h -0.950842 z"
             style="font-size:10.58328915px;stroke-width:0.26458222"
             id="path1019" />
          <path
             d="m 31.876044,238.22619 q -0.764808,0 -1.209223,0.59945 -0.444416,0.59427 -0.444416,1.63296 0,1.0387 0.439248,1.63814 0.444415,0.59428 1.214391,0.59428 0.75964,0 1.204056,-0.59945 0.444415,-0.59944 0.444415,-1.63297 0,-1.02835 -0.444415,-1.6278 -0.444416,-0.60461 -1.204056,-0.60461 z m 0,-0.80615 q 1.240229,0 1.948193,0.80615 0.707965,0.80615 0.707965,2.23241 0,1.4211 -0.707965,2.23242 -0.707964,0.80615 -1.948193,0.80615 -1.245397,0 -1.953361,-0.80615 -0.702796,-0.81132 -0.702796,-2.23242 0,-1.42626 0.702796,-2.23241 0.707964,-0.80615 1.953361,-0.80615 z"
             style="font-size:10.58328915px;stroke-width:0.26458222"
             id="path1021" />
          <path
             d="m 36.025892,242.03473 h 1.090368 v 0.88883 l -0.84749,1.65364 h -0.666623 l 0.423745,-1.65364 z"
             style="font-size:10.58328915px;stroke-width:0.26458222"
             id="path1023" />
          <path
             d="m 41.095536,237.55957 h 0.950842 l 1.188553,4.5165 1.183385,-4.5165 h 1.121374 l 1.188553,4.5165 1.183386,-4.5165 h 0.950842 l -1.514113,5.78774 h -1.121374 l -1.245397,-4.74388 -1.250564,4.74388 h -1.121374 z"
             style="font-size:10.58328915px;stroke-width:0.26458222"
             id="path1025" />
          <path
             d="m 52.232009,238.22619 q -0.764808,0 -1.209224,0.59945 -0.444415,0.59427 -0.444415,1.63296 0,1.0387 0.439248,1.63814 0.444415,0.59428 1.214391,0.59428 0.75964,0 1.204056,-0.59945 0.444415,-0.59944 0.444415,-1.63297 0,-1.02835 -0.444415,-1.6278 -0.444416,-0.60461 -1.204056,-0.60461 z m 0,-0.80615 q 1.240229,0 1.948193,0.80615 0.707964,0.80615 0.707964,2.23241 0,1.4211 -0.707964,2.23242 -0.707964,0.80615 -1.948193,0.80615 -1.245397,0 -1.953361,-0.80615 -0.702797,-0.81132 -0.702797,-2.23242 0,-1.42626 0.702797,-2.23241 0.707964,-0.80615 1.953361,-0.80615 z"
             style="font-size:10.58328915px;stroke-width:0.26458222"
             id="path1027" />
          <path
             d="m 59.492763,238.4484 q -0.160196,-0.093 -0.351398,-0.13436 -0.186035,-0.0465 -0.41341,-0.0465 -0.806149,0 -1.240229,0.5271 -0.428913,0.52193 -0.428913,1.50378 v 3.0489 h -0.95601 v -5.78774 h 0.95601 v 0.89917 q 0.299722,-0.5271 0.780311,-0.78032 0.480589,-0.25838 1.167882,-0.25838 0.09819,0 0.217041,0.0155 0.118855,0.0103 0.263548,0.0362 z"
             style="font-size:10.58328915px;stroke-width:0.26458222"
             id="path1029" />
          <path
             d="m 60.180305,235.30649 h 0.950842 v 8.04082 h -0.950842 z"
             style="font-size:10.58328915px;stroke-width:0.26458222"
             id="path1031" />
          <path
             d="m 66.603909,238.43806 v -3.13157 h 0.950842 v 8.04082 h -0.950842 v -0.86817 q -0.299723,0.51677 -0.759641,0.76998 -0.454751,0.24805 -1.095536,0.24805 -1.049027,0 -1.710482,-0.83716 -0.656288,-0.83715 -0.656288,-2.20141 0,-1.36425 0.656288,-2.2014 0.661455,-0.83716 1.710482,-0.83716 0.640785,0 1.095536,0.25322 0.459918,0.24804 0.759641,0.7648 z m -3.240099,2.02054 q 0,1.04903 0.428912,1.64848 0.434081,0.59427 1.188553,0.59427 0.754473,0 1.188553,-0.59427 0.434081,-0.59945 0.434081,-1.64848 0,-1.04902 -0.434081,-1.6433 -0.43408,-0.59944 -1.188553,-0.59944 -0.754472,0 -1.188553,0.59944 -0.428912,0.59428 -0.428912,1.6433 z"
             style="font-size:10.58328915px;stroke-width:0.26458222"
             id="path1033" />
          <path
             d="m 69.792578,242.03473 h 1.049027 v 1.31258 h -1.049027 z m 0,-6.40268 h 1.049027 v 3.38479 l -0.103352,1.84484 h -0.837155 l -0.10852,-1.84484 z"
             style="font-size:10.58328915px;stroke-width:0.26458222"
             id="path1035" />
          <path
             d="m 74.009605,235.63205 v 2.86803 h -0.878496 v -2.86803 z m 1.953361,0 v 2.86803 H 75.08447 v -2.86803 z"
             style="font-size:10.58328915px;stroke-width:0.26458222"
             id="path1037" />
        </g>
      </g>
      <g
         transform="translate(-1.1812512)"
         id="g5816">
        <g
           aria-label="13"
           style="font-style:normal;font-variant:normal;font-weight:normal;font-stretch:normal;font-size:10.58328915px;line-height:1.25;font-family:font;-inkscape-font-specification:font;letter-spacing:-0.32014453px;word-spacing:-0.23283237px;writing-mode:lr-tb;fill:#000000;fill-opacity:1;stroke:none;stroke-width:0.26458222"
           id="text823">
          <path
             d="m 129.9548,242.9158 h 1.70532 v -5.88592 l -1.85518,0.37207 v -0.95084 l 1.84484,-0.37207 h 1.04386 v 6.83676 h 1.70532 v 0.8785 h -4.44416 z"
             style="stroke-width:0.26458222"
             id="path1006" />
          <path
             d="m 139.35495,239.63436 q 0.74931,0.1602 1.16789,0.66662 0.42374,0.50643 0.42374,1.25057 0,1.14204 -0.78548,1.76733 -0.78547,0.62528 -2.23241,0.62528 -0.48576,0 -1.00252,-0.0982 -0.51159,-0.093 -1.05936,-0.28422 v -1.00768 q 0.43408,0.25321 0.95084,0.3824 0.51676,0.12919 1.08004,0.12919 0.98184,0 1.49344,-0.38757 0.51676,-0.38757 0.51676,-1.12654 0,-0.68213 -0.48059,-1.06453 -0.47542,-0.38757 -1.32808,-0.38757 h -0.89916 v -0.85783 h 0.9405 q 0.76998,0 1.17822,-0.30489 0.40824,-0.31006 0.40824,-0.88883 0,-0.59428 -0.42374,-0.9095 -0.41858,-0.32039 -1.20406,-0.32039 -0.42891,0 -0.91983,0.093 -0.49093,0.093 -1.08004,0.28939 v -0.93017 q 0.59428,-0.16536 1.11104,-0.24805 0.52193,-0.0827 0.98185,-0.0827 1.18855,0 1.88101,0.5426 0.69247,0.53743 0.69247,1.45727 0,0.64079 -0.36691,1.0852 -0.3669,0.43925 -1.04386,0.60978 z"
             style="stroke-width:0.26458222"
             id="path1008" />
        </g>
        <path
           style="fill:none;stroke:#6c757b;stroke-width:1.01466775;stroke-linecap:round;stroke-linejoin:bevel;stroke-miterlimit:4;stroke-dasharray:none;stroke-opacity:0.99215686"
           d="m 94.88314,199.4564 v 80.97811 h 80.98523 V 199.4564"
           id="path815-3"
           inkscape:connector-curvature="0"
           sodipodi:nodetypes="cccc" />
      </g>
      <g
         id="g5811">
        <g
           aria-label="22/7"
           style="font-style:normal;font-variant:normal;font-weight:normal;font-stretch:normal;font-size:10.58328915px;line-height:1.25;font-family:font;-inkscape-font-specification:font;letter-spacing:-0.32014453px;word-spacing:-0.23283237px;writing-mode:lr-tb;fill:#000000;fill-opacity:1;stroke:none;stroke-width:0.26458222"
           id="text827">
          <path
             d="m 218.07159,242.49982 h 3.64317 v 0.87849 h -4.89891 v -0.87849 q 0.59428,-0.61495 1.61747,-1.64848 1.02836,-1.03869 1.2919,-1.33841 0.50126,-0.56327 0.69763,-0.95084 0.20154,-0.39274 0.20154,-0.76998 0,-0.61494 -0.43408,-1.00252 -0.42891,-0.38757 -1.12137,-0.38757 -0.49093,0 -1.0387,0.17053 -0.5426,0.17053 -1.16271,0.51677 v -1.0542 q 0.63045,-0.25321 1.17822,-0.3824 0.54777,-0.12919 1.00252,-0.12919 1.19888,0 1.91202,0.59944 0.71313,0.59944 0.71313,1.60196 0,0.47542 -0.18087,0.90434 -0.1757,0.42374 -0.64595,1.00252 -0.12919,0.14986 -0.82165,0.86816 -0.69246,0.71313 -1.95336,1.99987 z"
             style="stroke-width:0.26458222"
             id="path997" />
          <path
             d="m 224.49002,242.49982 h 3.64317 v 0.87849 h -4.8989 v -0.87849 q 0.59427,-0.61495 1.61746,-1.64848 1.02836,-1.03869 1.29191,-1.33841 0.50126,-0.56327 0.69763,-0.95084 0.20153,-0.39274 0.20153,-0.76998 0,-0.61494 -0.43408,-1.00252 -0.42891,-0.38757 -1.12137,-0.38757 -0.49092,0 -1.03869,0.17053 -0.5426,0.17053 -1.16272,0.51677 v -1.0542 q 0.63045,-0.25321 1.17822,-0.3824 0.54777,-0.12919 1.00252,-0.12919 1.19889,0 1.91202,0.59944 0.71313,0.59944 0.71313,1.60196 0,0.47542 -0.18086,0.90434 -0.1757,0.42374 -0.64596,1.00252 -0.12919,0.14986 -0.82165,0.86816 -0.69246,0.71313 -1.95336,1.99987 z"
             style="stroke-width:0.26458222"
             id="path999" />
          <path
             d="m 231.56474,235.66305 h 0.8785 l -2.68717,8.69711 h -0.87849 z"
             style="stroke-width:0.26458222"
             id="path1001" />
          <path
             d="m 233.00159,235.66305 h 4.96092 v 0.44442 l -2.80086,7.27084 h -1.09036 l 2.63548,-6.83676 h -3.70518 z"
             style="stroke-width:0.26458222"
             id="path1003" />
        </g>
        <path
           style="fill:none;stroke:#6c757b;stroke-width:1.01466787;stroke-linecap:round;stroke-linejoin:bevel;stroke-miterlimit:4;stroke-dasharray:none;stroke-opacity:0.99215686"
           d="m 186.89655,199.4564 v 80.97811 h 80.98524 V 199.4564"
           id="path815-6"
           inkscape:connector-curvature="0"
           sodipodi:nodetypes="cccc" />
      </g>
      <path
         style="opacity:0.8;vector-effect:none;fill:#3498db;fill-opacity:1;stroke:none;stroke-width:1.19839871;stroke-linecap:round;stroke-linejoin:bevel;stroke-miterlimit:4;stroke-dasharray:none;stroke-dashoffset:0;stroke-opacity:0.99215686;paint-order:fill markers stroke"
         d="m 0,283 h 82 v 15 H 0 Z"
         id="rect5642" />
      <g
         aria-label="greeting"
         style="font-style:normal;font-variant:normal;font-weight:normal;font-stretch:normal;font-size:10.58333302px;line-height:1.25;font-family:font;-inkscape-font-specification:font;letter-spacing:-0.32014453px;word-spacing:-0.23283237px;writing-mode:lr-tb;fill:#000000;fill-opacity:1;stroke:none;stroke-width:0.26458222"
         id="text852">
        <path
           d="m 21.261314,290.44316 q 0,-1.06971 -0.351399,-1.62264 -0.346233,-0.55811 -1.012859,-0.55811 -0.697631,0 -1.064534,0.55811 -0.366903,0.55293 -0.366903,1.62264 0,1.0697 0.366903,1.63297 0.37207,0.55811 1.07487,0.55811 0.65629,0 1.002523,-0.56328 0.351399,-0.56327 0.351399,-1.6278 z m 0.950847,2.56831 q 0,1.30225 -0.61495,1.97404 -0.614949,0.6718 -1.808675,0.6718 -0.392741,0 -0.821655,-0.0723 -0.428915,-0.0724 -0.857829,-0.21187 v -0.94051 q 0.506429,0.23771 0.91984,0.3514 0.413412,0.11368 0.759644,0.11368 0.769979,0 1.121379,-0.41857 0.351399,-0.41858 0.351399,-1.32809 v -0.0413 -0.64596 q -0.227376,0.48576 -0.620117,0.72347 -0.392741,0.23772 -0.956014,0.23772 -1.012858,0 -1.617472,-0.81132 -0.604614,-0.81132 -0.604614,-2.17041 0,-1.36426 0.604614,-2.17558 0.604614,-0.81132 1.617472,-0.81132 0.558106,0 0.945679,0.22221 0.387573,0.22221 0.630452,0.68729 v -0.7493 h 0.950847 z"
           style="font-style:normal;font-variant:normal;font-weight:normal;font-stretch:normal;font-size:10.58333302px;font-family:monospace;-inkscape-font-specification:monospace;stroke-width:0.26458222"
           id="path979" />
        <path
           d="m 28.842496,288.78951 q -0.304891,-0.23771 -0.620117,-0.34623 -0.315227,-0.10852 -0.692465,-0.10852 -0.888834,0 -1.35909,0.5581 -0.470255,0.55811 -0.470255,1.61231 v 2.87837 h -0.956014 v -5.78776 h 0.956014 v 1.13172 q 0.237711,-0.61495 0.728637,-0.94051 0.496094,-0.33073 1.173055,-0.33073 0.3514,0 0.656291,0.0879 0.304891,0.0879 0.583944,0.27388 z"
           style="font-style:normal;font-variant:normal;font-weight:normal;font-stretch:normal;font-size:10.58333302px;font-family:monospace;-inkscape-font-specification:monospace;stroke-width:0.26458222"
           id="path981" />
        <path
           d="m 34.666679,290.25195 v 0.46509 h -4.118612 v 0.031 q 0,0.94568 0.490926,1.46244 0.496094,0.51676 1.395264,0.51676 0.454752,0 0.950846,-0.14469 0.496094,-0.14469 1.059367,-0.43925 v 0.94568 q -0.542603,0.22221 -1.049032,0.33073 -0.501261,0.11369 -0.971517,0.11369 -1.348754,0 -2.108398,-0.80616 -0.759643,-0.81132 -0.759643,-2.23242 0,-1.38493 0.74414,-2.21175 0.744141,-0.82682 1.984375,-0.82682 1.105876,0 1.741496,0.74931 0.640788,0.7493 0.640788,2.04638 z m -0.950847,-0.27905 q -0.02067,-0.83716 -0.397908,-1.27124 -0.372071,-0.43925 -1.07487,-0.43925 -0.687297,0 -1.131714,0.45475 -0.444417,0.45476 -0.527099,1.26091 z"
           style="font-style:normal;font-variant:normal;font-weight:normal;font-stretch:normal;font-size:10.58333302px;font-family:monospace;-inkscape-font-specification:monospace;stroke-width:0.26458222"
           id="path983" />
        <path
           d="m 40.713071,290.25195 v 0.46509 h -4.118612 v 0.031 q 0,0.94568 0.490927,1.46244 0.496093,0.51676 1.395263,0.51676 0.454753,0 0.950847,-0.14469 0.496093,-0.14469 1.059366,-0.43925 v 0.94568 q -0.542602,0.22221 -1.049031,0.33073 -0.501262,0.11369 -0.971517,0.11369 -1.348755,0 -2.108398,-0.80616 -0.759644,-0.81132 -0.759644,-2.23242 0,-1.38493 0.744141,-2.21175 0.74414,-0.82682 1.984375,-0.82682 1.105875,0 1.741495,0.74931 0.640788,0.7493 0.640788,2.04638 z m -0.950846,-0.27905 q -0.02067,-0.83716 -0.397909,-1.27124 -0.37207,-0.43925 -1.07487,-0.43925 -0.687296,0 -1.131713,0.45475 -0.444418,0.45476 -0.5271,1.26091 z"
           style="font-style:normal;font-variant:normal;font-weight:normal;font-stretch:normal;font-size:10.58333302px;font-family:monospace;-inkscape-font-specification:monospace;stroke-width:0.26458222"
           id="path985" />
        <path
           d="m 44.185975,285.95247 v 1.64331 h 2.160075 v 0.73898 h -2.160075 v 3.14192 q 0,0.64079 0.24288,0.89401 0.242879,0.25321 0.847493,0.25321 h 1.069702 v 0.75964 h -1.16272 q -1.069702,0 -1.508951,-0.42891 -0.43925,-0.42891 -0.43925,-1.47795 v -3.14192 h -1.545125 v -0.73898 h 1.545125 v -1.64331 z"
           style="font-style:normal;font-variant:normal;font-weight:normal;font-stretch:normal;font-size:10.58333302px;font-family:monospace;-inkscape-font-specification:monospace;stroke-width:0.26458222"
           id="path987" />
        <path
           d="m 48.382352,287.59578 h 2.433959 v 5.04879 h 1.88619 v 0.73897 h -4.723226 v -0.73897 h 1.88619 v -4.30981 h -1.483113 z m 1.483113,-2.25309 h 0.950846 v 1.20406 h -0.950846 z"
           style="font-style:normal;font-variant:normal;font-weight:normal;font-stretch:normal;font-size:10.58333302px;font-family:monospace;-inkscape-font-specification:monospace;stroke-width:0.26458222"
           id="path989" />
        <path
           d="m 58.53702,289.7972 v 3.58634 h -0.956014 v -3.58634 q 0,-0.78031 -0.273885,-1.14722 -0.273885,-0.3669 -0.857829,-0.3669 -0.666626,0 -1.028361,0.47542 -0.356567,0.47026 -0.356567,1.35393 v 3.27111 h -0.950846 v -5.78776 h 0.950846 v 0.86817 q 0.253215,-0.4961 0.687297,-0.74931 0.434082,-0.25838 1.028361,-0.25838 0.883667,0 1.317749,0.58394 0.439249,0.57878 0.439249,1.757 z"
           style="font-style:normal;font-variant:normal;font-weight:normal;font-stretch:normal;font-size:10.58333302px;font-family:monospace;-inkscape-font-specification:monospace;stroke-width:0.26458222"
           id="path991" />
        <path
           d="m 63.586056,290.44316 q 0,-1.06971 -0.3514,-1.62264 -0.346232,-0.55811 -1.012858,-0.55811 -0.697632,0 -1.064535,0.55811 -0.366902,0.55293 -0.366902,1.62264 0,1.0697 0.366902,1.63297 0.372071,0.55811 1.07487,0.55811 0.656291,0 1.002523,-0.56328 0.3514,-0.56327 0.3514,-1.6278 z m 0.950846,2.56831 q 0,1.30225 -0.61495,1.97404 -0.614949,0.6718 -1.808675,0.6718 -0.392741,0 -0.821655,-0.0723 -0.428914,-0.0724 -0.857829,-0.21187 v -0.94051 q 0.506429,0.23771 0.919841,0.3514 0.413411,0.11368 0.759643,0.11368 0.769979,0 1.121379,-0.41857 0.3514,-0.41858 0.3514,-1.32809 v -0.0413 -0.64596 q -0.227377,0.48576 -0.620118,0.72347 -0.39274,0.23772 -0.956014,0.23772 -1.012858,0 -1.617472,-0.81132 -0.604614,-0.81132 -0.604614,-2.17041 0,-1.36426 0.604614,-2.17558 0.604614,-0.81132 1.617472,-0.81132 0.558106,0 0.945679,0.22221 0.387573,0.22221 0.630453,0.68729 v -0.7493 h 0.950846 z"
           style="font-style:normal;font-variant:normal;font-weight:normal;font-stretch:normal;font-size:10.58333302px;font-family:monospace;-inkscape-font-specification:monospace;stroke-width:0.26458222"
           id="path993" />
      </g>
      <g
         transform="translate(-1.1812515,0.99984607)"
         id="g5801">
        <path
           style="opacity:0.8;vector-effect:none;fill:#3498db;fill-opacity:1;stroke:none;stroke-width:1.19839871;stroke-linecap:round;stroke-linejoin:bevel;stroke-miterlimit:4;stroke-dasharray:none;stroke-dashoffset:0;stroke-opacity:0.99215686;paint-order:fill markers stroke"
           d="m 94.375755,282.00015 h 82.000005 v 15 H 94.375755 Z"
           id="rect5642-6" />
        <g
           aria-label="lucky_number"
           style="font-style:normal;font-variant:normal;font-weight:normal;font-stretch:normal;font-size:10.58333302px;line-height:1.25;font-family:font;-inkscape-font-specification:font;letter-spacing:-0.32014453px;word-spacing:-0.23283237px;writing-mode:lr-tb;fill:#000000;fill-opacity:1;stroke:none;stroke-width:0.26458222"
           id="text852-7">
          <path
             d="m 102.025,290.20296 q 0,0.64079 0.23255,0.96635 0.23771,0.32556 0.69763,0.32556 h 1.11104 v 0.80616 h -1.20406 q -0.85266,0 -1.32292,-0.54777 -0.46508,-0.54777 -0.46508,-1.5503 v -5.25549 H 99.5497 v -0.74414 h 2.4753 z"
             style="font-style:normal;font-variant:normal;font-weight:normal;font-stretch:normal;font-size:10.58333302px;font-family:monospace;-inkscape-font-specification:monospace;stroke-width:0.26458222"
             id="path954" />
          <path
             d="m 105.77696,290.10994 v -3.58634 h 0.95085 v 3.58634 q 0,0.78032 0.27388,1.14722 0.27905,0.3669 0.85783,0.3669 0.67179,0 1.02836,-0.47025 0.35657,-0.47542 0.35657,-1.35909 v -3.27112 h 0.95601 v 5.77743 h -0.95601 v -0.86817 q -0.25322,0.50126 -0.69247,0.75964 -0.43408,0.25839 -1.01802,0.25839 -0.88884,0 -1.32292,-0.57878 -0.43408,-0.58394 -0.43408,-1.76217 z"
             style="font-style:normal;font-variant:normal;font-weight:normal;font-stretch:normal;font-size:10.58333302px;font-family:monospace;-inkscape-font-specification:monospace;stroke-width:0.26458222"
             id="path956" />
          <path
             d="m 116.29853,292.00647 q -0.38241,0.22221 -0.79065,0.33073 -0.40308,0.11369 -0.82682,0.11369 -1.34359,0 -2.10323,-0.80616 -0.75448,-0.80615 -0.75448,-2.23242 0,-1.42627 0.75448,-2.23242 0.75964,-0.80615 2.10323,-0.80615 0.41858,0 0.81649,0.10852 0.3979,0.10852 0.80098,0.3359 v 0.99735 q -0.37724,-0.3359 -0.75964,-0.48576 -0.37724,-0.14986 -0.85783,-0.14986 -0.894,0 -1.3746,0.57878 -0.48059,0.57877 -0.48059,1.65364 0,1.06971 0.48059,1.65365 0.48576,0.57877 1.3746,0.57877 0.49609,0 0.88883,-0.14986 0.39274,-0.15503 0.72864,-0.47542 z"
             style="font-style:normal;font-variant:normal;font-weight:normal;font-stretch:normal;font-size:10.58333302px;font-family:monospace;-inkscape-font-specification:monospace;stroke-width:0.26458222"
             id="path958" />
          <path
             d="m 118.08162,284.26017 h 0.98185 v 4.65605 l 2.49597,-2.40295 h 1.15755 l -2.27893,2.18074 2.6355,3.60702 h -1.16272 l -2.1394,-2.9869 -0.70797,0.66662 v 2.32028 h -0.98185 z"
             style="font-style:normal;font-variant:normal;font-weight:normal;font-stretch:normal;font-size:10.58333302px;font-family:monospace;-inkscape-font-specification:monospace;stroke-width:0.26458222"
             id="path960" />
          <path
             d="m 127.34228,290.44067 q -0.23771,0.60462 -0.60461,1.59164 -0.5116,1.36426 -0.6873,1.66398 -0.23771,0.40308 -0.59428,0.60461 -0.35657,0.20154 -0.83199,0.20154 h -0.76481 v -0.79582 h 0.56327 q 0.41858,0 0.65629,-0.24287 0.23772,-0.24288 0.60462,-1.25574 l -2.23759,-5.69474 h 1.00769 l 1.71566,4.52685 1.68982,-4.52685 h 1.00769 z"
             style="font-style:normal;font-variant:normal;font-weight:normal;font-stretch:normal;font-size:10.58333302px;font-family:monospace;-inkscape-font-specification:monospace;stroke-width:0.26458222"
             id="path962" />
          <path
             d="m 135.32654,294.38359 v 0.41341 h -6.3717 v -0.41341 z"
             style="font-style:normal;font-variant:normal;font-weight:normal;font-stretch:normal;font-size:10.58333302px;font-family:monospace;-inkscape-font-specification:monospace;stroke-width:0.26458222"
             id="path964" />
          <path
             d="m 140.43242,288.71468 v 3.58635 h -0.95601 v -3.58635 q 0,-0.78031 -0.27389,-1.14722 -0.27388,-0.3669 -0.85783,-0.3669 -0.66662,0 -1.02836,0.47542 -0.35656,0.47026 -0.35656,1.35393 v 3.27112 h -0.95085 v -5.78776 h 0.95085 v 0.86816 q 0.25321,-0.49609 0.68729,-0.74931 0.43408,-0.25838 1.02836,-0.25838 0.88367,0 1.31775,0.58394 0.43925,0.57878 0.43925,1.757 z"
             style="font-style:normal;font-variant:normal;font-weight:normal;font-stretch:normal;font-size:10.58333302px;font-family:monospace;-inkscape-font-specification:monospace;stroke-width:0.26458222"
             id="path966" />
          <path
             d="m 142.05531,290.10994 v -3.58634 h 0.95085 v 3.58634 q 0,0.78032 0.27388,1.14722 0.27905,0.3669 0.85783,0.3669 0.67179,0 1.02836,-0.47025 0.35657,-0.47542 0.35657,-1.35909 v -3.27112 h 0.95601 v 5.77743 h -0.95601 v -0.86817 q -0.25322,0.50126 -0.69247,0.75964 -0.43408,0.25839 -1.01802,0.25839 -0.88884,0 -1.32292,-0.57878 -0.43408,-0.58394 -0.43408,-1.76217 z"
             style="font-style:normal;font-variant:normal;font-weight:normal;font-stretch:normal;font-size:10.58333302px;font-family:monospace;-inkscape-font-specification:monospace;stroke-width:0.26458222"
             id="path968" />
          <path
             d="m 150.58734,287.10238 q 0.1757,-0.37207 0.44441,-0.54777 0.27389,-0.18087 0.65629,-0.18087 0.69764,0 0.98186,0.5426 0.28938,0.53744 0.28938,2.03089 v 3.3538 h -0.86816 v -3.31246 q 0,-1.22474 -0.13953,-1.51929 -0.13435,-0.29972 -0.49609,-0.29972 -0.41341,0 -0.56844,0.32039 -0.14986,0.31523 -0.14986,1.49862 v 3.31246 h -0.86817 v -3.31246 q 0,-1.24024 -0.14986,-1.52963 -0.14469,-0.28938 -0.5271,-0.28938 -0.37724,0 -0.5271,0.32039 -0.14469,0.31523 -0.14469,1.49862 v 3.31246 h -0.863 v -5.78776 h 0.863 v 0.49609 q 0.17053,-0.31006 0.42375,-0.47026 0.25838,-0.16536 0.58394,-0.16536 0.39274,0 0.65112,0.18087 0.26355,0.18086 0.40825,0.54777 z"
             style="font-style:normal;font-variant:normal;font-weight:normal;font-stretch:normal;font-size:10.58333302px;font-family:monospace;-inkscape-font-specification:monospace;stroke-width:0.26458222"
             id="path970" />
          <path
             d="m 157.8843,289.41231 q 0,-1.10587 -0.3514,-1.66915 -0.3514,-0.56327 -1.0387,-0.56327 -0.69246,0 -1.04903,0.56844 -0.35656,0.56327 -0.35656,1.66398 0,1.09554 0.35656,1.66398 0.35657,0.56844 1.04903,0.56844 0.6873,0 1.0387,-0.56327 0.3514,-0.56327 0.3514,-1.66915 z m -2.79569,-2.16007 q 0.22737,-0.42375 0.62528,-0.65112 0.40308,-0.22738 0.93018,-0.22738 1.04386,0 1.64331,0.80615 0.59944,0.80099 0.59944,2.21175 0,1.43144 -0.60461,2.24793 -0.59945,0.81132 -1.64848,0.81132 -0.51676,0 -0.91467,-0.22221 -0.39274,-0.22738 -0.63045,-0.65629 v 0.72864 h -0.95085 v -8.04086 h 0.95085 z"
             style="font-style:normal;font-variant:normal;font-weight:normal;font-stretch:normal;font-size:10.58333302px;font-family:monospace;-inkscape-font-specification:monospace;stroke-width:0.26458222"
             id="path972" />
          <path
             d="m 164.93321,289.16943 v 0.46509 h -4.11861 v 0.031 q 0,0.94568 0.49093,1.46244 0.49609,0.51676 1.39526,0.51676 0.45475,0 0.95085,-0.14469 0.49609,-0.14469 1.05936,-0.43925 v 0.94568 q -0.5426,0.22221 -1.04903,0.33073 -0.50126,0.11369 -0.97151,0.11369 -1.34876,0 -2.1084,-0.80616 -0.75965,-0.81132 -0.75965,-2.23242 0,-1.38493 0.74414,-2.21175 0.74415,-0.82682 1.98438,-0.82682 1.10588,0 1.7415,0.74931 0.64078,0.74931 0.64078,2.04638 z m -0.95084,-0.27905 q -0.0207,-0.83716 -0.39791,-1.27124 -0.37207,-0.43925 -1.07487,-0.43925 -0.6873,0 -1.13172,0.45475 -0.44441,0.45476 -0.52709,1.26091 z"
             style="font-style:normal;font-variant:normal;font-weight:normal;font-stretch:normal;font-size:10.58333302px;font-family:monospace;-inkscape-font-specification:monospace;stroke-width:0.26458222"
             id="path974" />
          <path
             d="m 171.20181,287.70699 q -0.30489,-0.23771 -0.62011,-0.34623 -0.31523,-0.10852 -0.69247,-0.10852 -0.88883,0 -1.35909,0.5581 -0.47025,0.55811 -0.47025,1.61231 v 2.87838 h -0.95602 v -5.78776 h 0.95602 v 1.13171 q 0.23771,-0.61495 0.72863,-0.94051 0.4961,-0.33073 1.17306,-0.33073 0.3514,0 0.65629,0.0879 0.30489,0.0879 0.58394,0.27388 z"
             style="font-style:normal;font-variant:normal;font-weight:normal;font-stretch:normal;font-size:10.58333302px;font-family:monospace;-inkscape-font-specification:monospace;stroke-width:0.26458222"
             id="path976" />
        </g>
      </g>
      <g
         transform="translate(0,0.99984607)"
         id="g5796">
        <path
           style="opacity:0.8;vector-effect:none;fill:#3498db;fill-opacity:1;stroke:none;stroke-width:1.19839871;stroke-linecap:round;stroke-linejoin:bevel;stroke-miterlimit:4;stroke-dasharray:none;stroke-dashoffset:0;stroke-opacity:0.99215686;paint-order:fill markers stroke"
           d="m 186.38918,282.00015 h 82 v 15 h -82 z"
           id="rect5642-62" />
        <g
           aria-label="pi"
           style="font-style:normal;font-variant:normal;font-weight:normal;font-stretch:normal;font-size:10.58333302px;line-height:1.25;font-family:font;-inkscape-font-specification:font;letter-spacing:-0.32014453px;word-spacing:-0.23283237px;writing-mode:lr-tb;fill:#000000;fill-opacity:1;stroke:none;stroke-width:0.26458222"
           id="text852-9">
          <path
             d="m 222.99139,291.69122 v 2.93006 h -0.95601 v -7.98918 h 0.95601 v 0.73897 q 0.23772,-0.42891 0.63046,-0.65112 0.3979,-0.22738 0.91467,-0.22738 1.04903,0 1.64331,0.81132 0.59945,0.81132 0.59945,2.24793 0,1.41077 -0.59945,2.21692 -0.59945,0.80098 -1.64331,0.80098 -0.5271,0 -0.92501,-0.22221 -0.39274,-0.22737 -0.62012,-0.65629 z m 2.79053,-2.16007 q 0,-1.10588 -0.3514,-1.66915 -0.34623,-0.56327 -1.03353,-0.56327 -0.69246,0 -1.04903,0.56844 -0.35657,0.56327 -0.35657,1.66398 0,1.09554 0.35657,1.66398 0.35657,0.56844 1.04903,0.56844 0.6873,0 1.03353,-0.56327 0.3514,-0.56328 0.3514,-1.66915 z"
             style="font-style:normal;font-variant:normal;font-weight:normal;font-stretch:normal;font-size:10.58333302px;font-family:monospace;-inkscape-font-specification:monospace;stroke-width:0.26458222"
             id="path947" />
          <path
             d="m 228.42284,286.6321 h 2.43396 v 5.04879 h 1.88619 v 0.73897 h -4.72323 v -0.73897 h 1.88619 v -4.30982 h -1.48311 z m 1.48311,-2.25309 h 0.95085 v 1.20406 h -0.95085 z"
             style="font-style:normal;font-variant:normal;font-weight:normal;font-stretch:normal;font-size:10.58333302px;font-family:monospace;-inkscape-font-specification:monospace;stroke-width:0.26458222"
             id="path949" />
        </g>
      </g>
    </g>
  </g>
</svg>
